<svg xmlns="http://www.w3.org/2000/svg" xmlns:xlink="http://www.w3.org/1999/xlink" width="500" zoomAndPan="magnify" viewBox="0 0 375 374.999991" height="500" preserveAspectRatio="xMidYMid meet" version="1.0"><defs><g/></defs><g fill="#4f46e5" fill-opacity="1"><g transform="translate(252.178866, 340.371801)"><g><path d="M 1.296875 -39.375 C 1.296875 -26.6875 -1.84375 -17.519531 -8.125 -11.875 C -14.414062 -6.238281 -24.5625 -3.421875 -38.5625 -3.421875 L -52.21875 -3.421875 L -52.21875 -30.90625 L -34.8125 -30.90625 C -27.875 -30.90625 -24.40625 -33.128906 -24.40625 -37.578125 C -24.40625 -40.078125 -25.132812 -41.8125 -26.59375 -42.78125 C -28.0625 -43.757812 -30.53125 -44.25 -34 -44.25 C -38.550781 -44.25 -42.316406 -43.707031 -45.296875 -42.625 C -48.285156 -41.539062 -50.78125 -40.15625 -52.78125 -38.46875 C -54.789062 -36.789062 -57.910156 -33.785156 -62.140625 -29.453125 L -74.1875 -17.40625 C -83.289062 -8.082031 -93.378906 -3.421875 -104.453125 -3.421875 C -116.378906 -3.421875 -125.457031 -6.15625 -131.6875 -11.625 C -137.925781 -17.101562 -141.046875 -25.101562 -141.046875 -35.625 C -141.046875 -48.207031 -137.710938 -57.265625 -131.046875 -62.796875 C -124.378906 -68.328125 -113.941406 -71.09375 -99.734375 -71.09375 L -99.734375 -42.625 L -109.328125 -42.46875 C -111.171875 -42.46875 -112.632812 -41.953125 -113.71875 -40.921875 C -114.800781 -39.890625 -115.34375 -38.453125 -115.34375 -36.609375 C -115.34375 -34.429688 -114.742188 -32.800781 -113.546875 -31.71875 C -112.359375 -30.632812 -110.734375 -30.09375 -108.671875 -30.09375 C -104.117188 -30.09375 -99.398438 -32.695312 -94.515625 -37.90625 L -78.90625 -54.171875 C -75.21875 -57.972656 -71.71875 -61.117188 -68.40625 -63.609375 C -65.101562 -66.109375 -61.195312 -68.113281 -56.6875 -69.625 C -52.1875 -71.144531 -46.847656 -71.90625 -40.671875 -71.90625 C -26.898438 -71.90625 -16.460938 -69.382812 -9.359375 -64.34375 C -2.253906 -59.300781 1.296875 -50.976562 1.296875 -39.375 Z M 1.296875 -39.375 "/></g></g></g><g fill="#4f46e5" fill-opacity="1"><g transform="translate(252.178866, 265.373553)"><g><path d="M 0 -23.109375 L -46.046875 -23.109375 L -139.75 -0.8125 L -139.75 -28.46875 L -92.40625 -36.28125 L -139.75 -44.09375 L -139.75 -71.75 L -46.046875 -49.453125 L 0 -49.453125 Z M 0 -23.109375 "/></g></g></g><g fill="#4f46e5" fill-opacity="1"><g transform="translate(252.178866, 192.815602)"><g><path d="M 0 -6.1875 L -139.75 -6.1875 L -139.75 -34.984375 L -72.890625 -47.828125 L -139.75 -47.828125 L -139.75 -74.84375 L 0 -74.84375 L 0 -47.5 L -69.953125 -33.515625 L 0 -33.515625 Z M 0 -6.1875 "/></g></g></g><g fill="#4f46e5" fill-opacity="1"><g transform="translate(252.178866, 111.797951)"><g><path d="M 1.296875 -38.71875 C 1.296875 -28.519531 -1.898438 -20.359375 -8.296875 -14.234375 C -14.691406 -8.109375 -23.476562 -5.046875 -34.65625 -5.046875 L -99.078125 -5.046875 C -112.960938 -5.046875 -123.425781 -7.8125 -130.46875 -13.34375 C -137.519531 -18.875 -141.046875 -27.550781 -141.046875 -39.375 C -141.046875 -49.675781 -138.222656 -57.972656 -132.578125 -64.265625 C -126.941406 -70.554688 -118.8125 -73.703125 -108.1875 -73.703125 L -84.109375 -73.703125 L -84.109375 -45.875 L -104.765625 -45.875 C -108.785156 -45.875 -111.550781 -45.382812 -113.0625 -44.40625 C -114.582031 -43.4375 -115.34375 -41.757812 -115.34375 -39.375 C -115.34375 -36.875 -114.472656 -35.160156 -112.734375 -34.234375 C -111.003906 -33.316406 -108.457031 -32.859375 -105.09375 -32.859375 L -34.984375 -32.859375 C -31.296875 -32.859375 -28.609375 -33.398438 -26.921875 -34.484375 C -25.242188 -35.566406 -24.40625 -37.195312 -24.40625 -39.375 C -24.40625 -43.707031 -27.929688 -45.875 -34.984375 -45.875 L -60.1875 -45.875 L -60.1875 -74.015625 L -33.84375 -74.015625 C -10.414062 -74.015625 1.296875 -62.25 1.296875 -38.71875 Z M 1.296875 -38.71875 "/></g></g></g></svg>